<svg width="32" height="32" viewBox="0 0 32 32" fill="none" xmlns="http://www.w3.org/2000/svg">
<g id="3509744801561029235 1" clip-path="url(#clip0_3005_10784)">
<g id="Group">
<path id="Vector" d="M27.5 26.6667V27.1667H28H30.1667V28.8333H1.83333V27.1667H4H4.5V26.6667V3.99999C4.5 3.77898 4.5878 3.56701 4.74408 3.41073C4.90036 3.25445 5.11232 3.16666 5.33333 3.16666H26.6667C26.8877 3.16666 27.0996 3.25445 27.2559 3.41073C27.4122 3.56701 27.5 3.77898 27.5 3.99999V26.6667ZM25.3333 27.1667H25.8333V26.6667V5.33332V4.83332H25.3333H6.66667H6.16667V5.33332V26.6667V27.1667H6.66667H25.3333ZM11.1667 15.1667H14.1667V16.8333H11.1667V15.1667ZM11.1667 9.83332H14.1667V11.5H11.1667V9.83332ZM11.1667 20.5H14.1667V22.1667H11.1667V20.5ZM17.8333 20.5H20.8333V22.1667H17.8333V20.5ZM17.8333 15.1667H20.8333V16.8333H17.8333V15.1667ZM17.8333 9.83332H20.8333V11.5H17.8333V9.83332Z" fill="black" stroke="black"/>
</g>
</g>
<defs>
<clipPath id="clip0_3005_10784">
<rect width="32" height="32" fill="white"/>
</clipPath>
</defs>
</svg>
