<svg width="32" height="32" viewBox="0 0 32 32" fill="none" xmlns="http://www.w3.org/2000/svg">
<g id="2102998941582799504 1">
<g id="layer1">
<path id="rect1108-4" d="M12.5324 2V2.81812V6.06857V7.56179H10.7549V5.35864H2V6.16408V8.86066V9.67889V13.0822V23.1202V23.9256V27.3417V30H9.21842H10.7549H14.0689H18.9765V26.2465V11.3407L23.7818 30L30 28.2076L23.836 4.27939L18.9765 5.68022V2H12.5324ZM14.0689 3.62678H17.4401V4.43222H14.0689V3.62678ZM14.0689 6.06857H17.4401V26.2465H14.0689V7.56179V6.06857ZM22.7575 6.27238L28.111 27.0679L24.8724 28.0037L19.5158 7.20838L22.7575 6.27238ZM3.54853 6.9822H9.20637V8.86066H3.54853V6.9822ZM10.7549 9.19803H12.5324V26.2464V27.0518V28.3763H10.7549V27.3416V9.19803ZM3.54853 10.4842H9.20637V11.4457H3.54853V10.4842ZM3.54853 13.0822H9.20637V23.1202H3.54853V13.0822ZM3.54853 24.7437H9.20637V25.7052H3.54853V24.7437ZM3.54853 27.3416H9.20637V28.3763H3.54853V27.3416ZM14.0689 27.8701H17.4401V28.3763H14.0689V27.8701Z" fill="black"/>
</g>
</g>
</svg>
