<svg width="20" height="20" viewBox="0 0 20 20" fill="none" xmlns="http://www.w3.org/2000/svg">
<g id="search">
<path id="Vector" fill-rule="evenodd" clip-rule="evenodd" d="M18.75 17.875L13.375 12.5C15.75 9.62499 15.375 5.24999 12.5 2.87499C9.62502 0.499987 5.25002 0.874987 2.87502 3.74999C0.500017 6.62499 0.875017 11 3.75002 13.375C6.25002 15.5 10 15.5 12.5 13.375L17.875 18.75L18.75 17.875ZM2.50002 8.12499C2.50002 4.99999 5.00002 2.49999 8.12502 2.49999C11.25 2.49999 13.75 4.99999 13.75 8.12499C13.75 11.25 11.25 13.75 8.12502 13.75C5.00002 13.75 2.50002 11.25 2.50002 8.12499Z" fill="#525252"/>
</g>
</svg>
